<svg width="140" height="140" viewBox="0 0 140 140" fill="none" xmlns="http://www.w3.org/2000/svg">
  <g clip-path="url(#clip0_109_2)">
 <path d="M73.281 27.8306C86.4101 32.1364 97.9918 39.8229 107.062 49.8358C108.556 48.4981 110.328 47.7137 112.235 47.7137C112.795 47.7137 113.342 47.7948 113.874 47.9235C117.232 38.5521 118.425 28.4563 116.891 18.1913C116.883 18.1278 116.865 18.0679 116.856 18.0044C110.728 12.4806 103.62 8.02847 95.8221 4.92993C87.4959 11.1111 79.8447 18.8117 73.281 27.8306Z" fill="#FF5722"/>
    <path d="M41.536 24.2966C43.9365 24.071 46.3583 23.9141 48.8188 23.9141C55.0546 23.9141 61.1124 24.6544 66.9253 26.0291C73.6441 16.8851 81.4891 9.11055 90.0128 2.91876C83.6729 1.0258 76.9559 0 69.9992 0C61.8933 0 54.1152 1.39417 46.8747 3.92869C42.9848 9.19515 39.7699 14.9798 37.283 21.1381C39.1178 21.7779 40.6159 22.8689 41.536 24.2966Z" fill="#FF5722"/>
   
<path d="M1633 3263 l-51 -88 211 -5 c144 -3 219 -9 234 -18 43 -24 76 -80 81
-136 5 -67 -15 -115 -64 -152 -36 -28 -42 -29 -166 -33 l-128 -3 0 131 0 131
-85 0 -85 0 0 -221 0 -221 228 4 c260 4 284 10 366 91 79 79 113 179 103 299
-10 122 -70 219 -169 274 -53 29 -54 29 -238 32 l-185 3 -52 -88z"/>
<path d="M3540 3341 c-87 -27 -165 -95 -204 -180 -17 -38 -21 -65 -21 -156 0
-102 2 -114 29 -168 35 -68 98 -130 164 -160 42 -20 68 -22 227 -25 l180 -3
52 88 53 88 -220 5 c-202 5 -221 7 -247 26 -51 38 -73 81 -73 144 0 63 22 106
73 144 26 19 44 21 196 24 l167 3 31 52 c17 29 41 69 53 90 l22 37 -229 -1
c-125 0 -239 -4 -253 -8z"/>
 </g>
  <defs>
    <clipPath id="clip0_109_2">
      <rect width="140" height="140" fill="white"/>
    </clipPath>
  </defs>
</svg>
